<?xml version="1.0" encoding="iso-8859-1"?>
<!-- Generator: Adobe Illustrator 17.1.0, SVG Export Plug-In . SVG Version: 6.00 Build 0)  -->
<!DOCTYPE svg PUBLIC "-//W3C//DTD SVG 1.1//EN" "http://www.w3.org/Graphics/SVG/1.1/DTD/svg11.dtd">
<svg version="1.1" id="Capa_1" xmlns="http://www.w3.org/2000/svg" xmlns:xlink="http://www.w3.org/1999/xlink" x="0px" y="0px"
	 viewBox="0 0 465 465" style="enable-background:new 0 0 465 465;" xml:space="preserve">
<g>
	<path d="M304.94,181.955c-17.254,0-32.897,10.205-39.854,25.998c-1.67,3.791,0.05,8.217,3.84,9.887
		c3.79,1.669,8.217-0.05,9.887-3.841c4.561-10.354,14.816-17.045,26.127-17.045c11.494,0,21.813,6.841,26.292,17.427
		c1.21,2.861,3.987,4.58,6.91,4.58c0.975,0,1.965-0.191,2.919-0.594c3.814-1.614,5.6-6.014,3.985-9.829
		C338.217,192.39,322.474,181.955,304.94,181.955z"/>
	<path d="M156.752,181.955c-17.254,0-32.897,10.205-39.854,25.998c-1.67,3.791,0.05,8.217,3.84,9.887
		c3.79,1.669,8.217-0.05,9.887-3.841c4.561-10.354,14.816-17.045,26.127-17.045c11.493,0,21.813,6.841,26.291,17.427
		c1.21,2.861,3.987,4.58,6.91,4.58c0.975,0,1.965-0.191,2.919-0.594c3.814-1.614,5.6-6.014,3.985-9.829
		C190.027,192.39,174.285,181.955,156.752,181.955z"/>
	<path d="M426.646,456.939l-0.313-245.478c0-58.274-20.031-111.982-56.405-151.23C333.933,21.39,285.327,0,233.064,0l-0.701,0.001
		L231.602,0c-52.259,0-100.863,21.391-136.86,60.233c-36.375,39.25-56.408,92.957-56.408,151.228V457.5c0,4.142,3.357,7.5,7.5,7.5
		c25.795,0,49.329-13.281,62.618-34.25c13.221,20.969,36.533,34.25,62.025,34.25c25.486,0,48.792-13.271,62.014-34.232
		C245.712,451.729,269.018,465,294.504,465c25.492,0,48.805-13.282,62.025-34.25c13.289,20.969,36.823,34.25,62.618,34.25
		c0.006-0.001,0.014,0,0.02,0c4.143,0,7.5-3.358,7.5-7.5C426.667,457.311,426.66,457.124,426.646,456.939z M363.589,411.179
		c-1.061-2.995-3.893-4.997-7.07-4.997c-3.177,0-6.01,2.002-7.07,4.997C341.228,434.399,319.146,450,294.504,450
		s-46.723-15.601-54.943-38.821c-1.061-2.995-3.894-4.997-7.07-4.997s-6.01,2.002-7.07,4.997
		C217.199,434.399,195.119,450,170.477,450s-46.723-15.601-54.944-38.821c-1.061-2.995-3.894-4.997-7.07-4.997
		c-3.178,0-6.01,2.002-7.07,4.997c-7.389,20.87-26.172,35.585-48.059,38.35V211.461C53.333,101.296,131.638,15,231.602,15
		l0.762,0.001L233.064,15c99.964,0,178.269,86.296,178.269,196.47l0.305,238.057C389.757,446.759,370.976,432.045,363.589,411.179z"
		/>
	<path d="M251.95,251.476c-4.143,0-7.5,3.358-7.5,7.5c0,7.444-6.056,13.5-13.5,13.5s-13.5-6.056-13.5-13.5
		c0-4.142-3.357-7.5-7.5-7.5s-7.5,3.358-7.5,7.5c0,15.715,12.785,28.5,28.5,28.5s28.5-12.785,28.5-28.5
		C259.45,254.834,256.093,251.476,251.95,251.476z"/>
</g>
<g>
</g>
<g>
</g>
<g>
</g>
<g>
</g>
<g>
</g>
<g>
</g>
<g>
</g>
<g>
</g>
<g>
</g>
<g>
</g>
<g>
</g>
<g>
</g>
<g>
</g>
<g>
</g>
<g>
</g>
</svg>
