<svg id="Capa_1" enable-background="new 0 0 512 512" height="512" viewBox="0 0 512 512" width="512" xmlns="http://www.w3.org/2000/svg"><g><path d="m306.826 205.009c-4.805-24.173-26.18-41.718-50.826-41.718s-46.022 17.545-50.826 41.719l-2.014 10.134c-3.036 15.276.89 30.941 10.771 42.98 9.881 12.038 24.481 18.942 40.055 18.942h4.029c15.574 0 30.174-6.904 40.055-18.943 9.881-12.038 13.807-27.704 10.771-42.979zm-20.353 43.595c-7.02 8.553-17.393 13.459-28.458 13.459h-4.029c-11.065 0-21.438-4.905-28.459-13.458-7.02-8.553-9.81-19.683-7.653-30.536l2.014-10.134c3.414-17.175 18.601-29.64 36.112-29.64s32.698 12.465 36.112 29.64l2.014 10.134c2.157 10.852-.633 21.982-7.653 30.535z"/><path d="m171.039 193.225c-14.618 0-26.511 11.892-26.511 26.511 0 4.143 3.359 7.501 7.501 7.501s7.501-3.359 7.501-7.501c0-6.345 5.163-11.508 11.508-11.508s11.508 5.162 11.508 11.508c0 4.143 3.359 7.501 7.501 7.501 4.143 0 7.501-3.359 7.501-7.501.001-14.619-11.891-26.511-26.509-26.511z"/><path d="m340.961 193.225c-14.618 0-26.511 11.892-26.511 26.511 0 4.143 3.359 7.501 7.501 7.501 4.143 0 7.501-3.359 7.501-7.501 0-6.345 5.162-11.508 11.508-11.508 6.345 0 11.508 5.162 11.508 11.508 0 4.143 3.359 7.501 7.501 7.501 4.143 0 7.501-3.359 7.501-7.501.002-14.619-11.891-26.511-26.509-26.511z"/><path d="m291.402 284.169c-4.143 0-7.501 3.359-7.501 7.501 0 5.624-4.576 10.199-10.2 10.199s-10.199-4.575-10.199-10.199c0-4.143-3.359-7.501-7.501-7.501-4.143 0-7.501 3.359-7.501 7.501 0 5.624-4.576 10.199-10.199 10.199-5.624 0-10.2-4.575-10.2-10.199 0-4.143-3.359-7.501-7.501-7.501-4.143 0-7.501 3.359-7.501 7.501 0 13.897 11.306 25.202 25.203 25.202 6.893 0 13.146-2.784 17.701-7.283 4.555 4.499 10.808 7.283 17.701 7.283 13.897 0 25.203-11.306 25.203-25.202-.004-4.142-3.362-7.501-7.505-7.501z"/><path d="m491.329 99.027c-2.675-2.588-2.745-6.8-.145-9.401 5.711-5.71 7.748-14.042 5.318-21.743-14.56-46.128-115.789-64.696-172.624 4.292-43.142-18.875-92.61-18.877-135.758 0-30.33-36.852-68.963-44.238-89.803-45.284-4.122-.215-7.66 2.978-7.868 7.116s2.979 7.661 7.116 7.868c17.796.894 50.357 7.034 76.686 37.12-8.046 4.431-15.767 9.536-23.084 15.217-34.079-24.7-82.714-.477-82.714 42.263 0 16.493 7.859 31.94 20.874 41.721-4.012 10.48-6.963 20.784-8.993 30.841-26.287.448-54.339-5.003-61.336-30.323-10.307-37.303.893-58.06 12.103-68.904 8.702-8.418 8.861-22.255.322-30.793-1.739-1.739-2.359-4.274-1.619-6.618 4.041-12.802 19.39-23.631 40.058-28.26 4.043-.905 6.586-4.917 5.681-8.959-.905-4.043-4.918-6.586-8.96-5.68-26.257 5.88-45.355 20.23-51.085 38.384-2.43 7.701-.393 16.032 5.318 21.743 2.601 2.601 2.531 6.812-.145 9.401-22.484 21.749-24.5 53.401-16.133 83.683 9.234 33.421 43.27 41.335 73.409 41.339-7.243 62.355 18.962 118.933 77.876 147.375-33.027 25.965-58.134 63.583-58.134 106.377 0 4.143 3.359 7.501 7.501 7.501h301.619c4.143 0 7.501-3.359 7.501-7.501 0-21.759-6.322-42.975-18.789-63.056-2.186-3.52-6.811-4.602-10.33-2.416-3.52 2.185-4.601 6.81-2.416 10.33 9.517 15.329 14.964 31.321 16.24 47.642h-67.041c-9.855-33.193-40.869-56.701-75.975-56.701-35.105 0-66.119 23.508-75.974 56.701h-67.038c3.981-50.395 47.016-83.79 58.929-92.113 46.639 16.902 117.966 18.197 168.176-.004 4.881 3.391 14.956 10.942 25.369 22.063 2.831 3.024 7.578 3.18 10.603.348 3.024-2.832 3.18-7.579.348-10.603-7.401-7.903-14.592-14.126-20.239-18.566 59.301-28.629 85.054-85.6 77.878-147.376 30.137-.004 64.175-7.921 73.409-41.339 8.367-30.277 6.356-61.932-16.131-83.685zm-235.329 329.575c26.937 0 50.91 17.064 60.173 41.698h-120.346c9.263-24.634 33.236-41.698 60.173-41.698zm-172.544-292.126c0-28.678 31.224-46.43 55.787-32.158-18.477 17.097-33.169 37.307-43.755 59.513-7.563-6.962-12.032-16.863-12.032-27.355zm152.515 239.183c-231.583-15.843-154.182-302.628 20.029-302.628 186.236 0 257.12 321.301-20.029 302.628zm180.541-211.828c-10.36-21.734-24.759-41.871-43.756-59.513 24.37-14.161 55.787 3.3 55.787 32.158.001 10.492-4.468 20.393-12.031 27.355zm76.489 14.883c-5.73 20.735-26.37 30.925-61.336 30.323-2.086-10.333-5.071-20.593-8.992-30.841 13.015-9.78 20.874-25.227 20.874-41.721 0-42.763-48.66-66.947-82.714-42.263-7.12-5.533-14.686-10.574-23.08-15.215 49.681-56.68 133.846-40.17 144.443-6.598.74 2.344.12 4.88-1.619 6.618-8.529 8.528-8.39 22.364.322 30.793 11.209 10.845 22.409 31.602 12.102 68.904z"/></g></svg>