<svg id="Layer_3" enable-background="new 0 0 64 64" height="512" viewBox="0 0 64 64" width="512" xmlns="http://www.w3.org/2000/svg"><g><path d="m52.06 33.178-2.856-3.141c-1.422-1.562-2.204-3.586-2.204-5.699v-.102c0-1.308.31-2.618.895-3.789.723-1.447 1.105-3.067 1.105-4.683v-.107c0-3.916-1.524-7.596-4.293-10.364-2.769-2.769-6.449-4.293-10.364-4.293h-2.343-2.343c-3.915 0-7.596 1.524-10.364 4.293-2.769 2.768-4.293 6.448-4.293 10.364v.107c0 1.616.382 3.235 1.105 4.683.585 1.171.895 2.481.895 3.789v.102c0 2.113-.782 4.137-2.203 5.699l-2.856 3.141c-3.186 3.506-4.941 8.045-4.941 12.781v2.041c0 .404.243.77.617.924.374.156.804.069 1.09-.217l2.657-2.657c.821 3.528 2.523 6.84 4.941 9.597-1.957.989-3.305 3.014-3.305 5.353v1c0 .553.447 1 1 1h10c.553 0 1-.447 1-1v-.435c2.088.947 4.432 1.435 7 1.435s4.912-.488 7-1.435v.435c0 .553.447 1 1 1h10c.553 0 1-.447 1-1v-1c0-2.338-1.347-4.363-3.303-5.352 2.395-2.722 4.102-6.032 4.935-9.602l2.661 2.661c.286.286.717.373 1.09.217.374-.154.617-.52.617-.924v-2.041c0-4.736-1.755-9.275-4.94-12.781zm-32.06 27.822v-2h-2v2h-3c0-2.206 1.794-4 4-4s4 1.794 4 4zm19.286-1.825c-2.086 1.208-4.533 1.825-7.286 1.825s-5.2-.617-7.286-1.825c-.614-1.918-2.169-3.414-4.119-3.953-1.718-2.661-2.595-6.095-2.595-10.222 0-8.312 3.535-17.405 8.406-21.619.271-.235.396-.596.327-.948-.068-.352-.32-.64-.66-.755-2.689-.913-4.349-3.531-4.035-6.366.33-2.979 3.059-5.312 6.212-5.312h.578c.095 0 .172.077.172.171 0 2.091.814 4.057 2.293 5.536.375.375 1.039.375 1.414 0 1.479-1.479 2.293-3.445 2.293-5.536 0-.094.077-.171.172-.171h.578c3.153 0 5.882 2.333 6.212 5.312.313 2.835-1.346 5.453-4.035 6.366-.34.115-.592.403-.66.755s.056.713.327.948c4.871 4.214 8.406 13.307 8.406 21.619 0 4.127-.877 7.561-2.595 10.222-1.95.539-3.505 2.035-4.119 3.953zm9.714 1.825h-3v-2h-2v2h-3c0-2.206 1.794-4 4-4s4 1.794 4 4zm3.707-17.707c-.268-.268-.668-.328-1.028-.206-.359.119-.625.467-.679.842-.548 3.84-2.247 7.48-4.842 10.426 1.219-2.637 1.842-5.768 1.842-9.355 0-8.211-3.299-17.186-7.991-22.078 2.721-1.563 4.3-4.59 3.941-7.831-.449-4.042-3.973-7.091-8.2-7.091h-.578c-1.197 0-2.172.974-2.172 2.171 0 1.182-.35 2.311-1 3.268-.65-.957-1-2.085-1-3.268 0-1.197-.975-2.171-2.172-2.171h-.578c-4.227 0-7.751 3.049-8.2 7.092-.358 3.24 1.221 6.268 3.941 7.831-4.692 4.891-7.991 13.866-7.991 22.077 0 3.59.624 6.724 1.845 9.362-2.581-2.917-4.295-6.579-4.855-10.499-.052-.376-.312-.689-.672-.811-.36-.121-.757-.027-1.025.241l-2.289 2.289c.091-4.102 1.65-8.016 4.417-11.059l2.856-3.141c1.756-1.931 2.723-4.433 2.723-7.044v-.102c0-1.616-.382-3.235-1.105-4.683-.585-1.171-.895-2.481-.895-3.789v-.107c0-3.381 1.316-6.56 3.707-8.95 2.391-2.391 5.569-3.707 8.95-3.707h2.343 2.343c3.381 0 6.56 1.316 8.95 3.707 2.391 2.39 3.707 5.568 3.707 8.95v.107c0 1.308-.31 2.618-.895 3.789-.723 1.447-1.105 3.067-1.105 4.683v.102c0 2.611.967 5.113 2.723 7.044l2.856 3.141c2.767 3.043 4.326 6.957 4.417 11.059z"/><path d="m26 13c-1.654 0-3 1.346-3 3h2c0-.551.448-1 1-1s1 .449 1 1h2c0-1.654-1.346-3-3-3z"/><path d="m38 15c.552 0 1 .449 1 1h2c0-1.654-1.346-3-3-3s-3 1.346-3 3h2c0-.551.448-1 1-1z"/><path d="m36.242 18.03-4-1c-.158-.04-.326-.04-.484 0l-4 1c-.331.083-.597.328-.705.65-.109.323-.046.679.166.944l4 5c.19.238.477.376.781.376s.591-.138.781-.375l4-5c.212-.266.275-.622.166-.944-.108-.324-.374-.569-.705-.651zm-4.242 4.369-2.246-2.807 2.246-.561 2.246.562z"/></g></svg>