<?xml version="1.0" ?><svg viewBox="0 0 100 100" xmlns="http://www.w3.org/2000/svg"><title/><g data-name="Layer 2" id="Layer_2"><path d="M44.88,40.42l-.24-.08c-1.32-.26-13-2.39-16,2a10.29,10.29,0,0,0-1.49,8.4,6,6,0,0,0,3.29,4,5.79,5.79,0,0,0,2.3.4,19.07,19.07,0,0,0,7.72-2.09c1.93-1,5.27-3,6-5.92C47.71,41.95,45.17,40.56,44.88,40.42Zm-.38,6.31c-.37,1.53-2.21,3.25-4.92,4.6-3.54,1.76-7,2.21-8.33,1.64a4.09,4.09,0,0,1-2.17-2.75,8.24,8.24,0,0,1,1.23-6.72c1-1.41,3.8-1.9,6.9-1.9a38.82,38.82,0,0,1,6.85.65C44.34,42.51,45.25,43.59,44.5,46.73Z"/><path d="M55.36,40.34l-.24.08c-.29.14-2.83,1.53-1.57,6.78.7,2.92,4,5,6,5.92a19.06,19.06,0,0,0,7.72,2.09,5.8,5.8,0,0,0,2.3-.4,6,6,0,0,0,3.29-4,10.29,10.29,0,0,0-1.49-8.4C68.32,37.95,56.68,40.08,55.36,40.34Zm15.56,9.89A4.09,4.09,0,0,1,68.75,53c-1.32.57-4.79.12-8.33-1.64-2.71-1.35-4.56-3.07-4.92-4.6-.76-3.14.16-4.22.45-4.47C60.45,41.41,68,41,69.69,43.51A8.24,8.24,0,0,1,70.92,50.23Z"/><path d="M52,51.52l-.33-2.29L50,51.35l-1.68-2.1L48,51.52c0,.05-.76,5-2.75,7.26a4.31,4.31,0,0,0-1.18,4.3,4,4,0,0,0,2.84,2.62,2.88,2.88,0,0,0,2.8-.76,3.61,3.61,0,0,0,2.38.89,4.19,4.19,0,0,0,1-.12,4.05,4.05,0,0,0,2.89-2.67,4.3,4.3,0,0,0-1.18-4.27C52.76,56.56,52,51.57,52,51.52Zm2,10.94a2,2,0,0,1-1.45,1.32A1.68,1.68,0,0,1,50.64,63l-.7-1.36-1,1.19c-.79,1-1.32,1-1.37,1l-.2-.06A2,2,0,0,1,46,62.48a2.45,2.45,0,0,1,.76-2.36A15.3,15.3,0,0,0,49.53,54l.48.6.46-.59a15.28,15.28,0,0,0,2.8,6.15A2.45,2.45,0,0,1,54,62.46Z"/><path d="M79.17,51.92a6.8,6.8,0,0,1,0-4.21c5-16.06.51-24.58-.06-25.56C72.16,4.94,51.23,5,51,5H49c-.61,0-21.2.1-28.05,17.15-.57,1-5.11,9.51,0,25.6a6.83,6.83,0,0,1,0,4.17c-.1.26-.2.5-.3.74-.84,2-1.71,4.13,1.54,6.94a20.94,20.94,0,0,0,2.48,2.12,4.85,4.85,0,0,1,1.29,1.35,2.19,2.19,0,0,0,1,1.33c1.05.63,2.69.53,5.5-.32,2.13-.65,2.95.3,3.57,2A39.72,39.72,0,0,1,37,71.65v0l-.45,3.27c-3.42-4.27-3.53-7-3.53-7V66.71l-1.2.24a9.88,9.88,0,0,1-4.24-.31l-2-.65.82,2a10.17,10.17,0,0,1,.52,6c-.06.22-1.42,5.32,2.28,8.77,3.22,3,8.36,6.4,15.08,10.55C44.72,93.69,46.39,95,50,95s5.28-1.31,5.74-1.75c6.72-4.15,11.86-7.54,15.08-10.55,3.7-3.45,2.34-8.55,2.3-8.7a10.22,10.22,0,0,1,.5-6l.95-2.29-2.27,1a8.19,8.19,0,0,1-4.18.26L67,66.76l0,1.15s-.11,2.75-3.53,7L63,71.74v-.07a40,40,0,0,1,1.11-5.56c.63-1.74,1.44-2.69,3.57-2,2.8.86,4.45,1,5.5.32a2.19,2.19,0,0,0,1-1.33,4.85,4.85,0,0,1,1.29-1.35,20.18,20.18,0,0,0,2.42-2.07c3.31-2.87,2.44-5,1.6-7C79.37,52.42,79.27,52.18,79.17,51.92Zm-15.7,26c3.81-4.12,5-7.31,5.33-8.91A11.1,11.1,0,0,0,71.21,69a12.64,12.64,0,0,0,0,5.48s1.1,4.14-1.72,6.77c-3.12,2.91-8.2,6.25-14.87,10.37l-.21.18S53.18,93,50,93s-4.36-1.2-4.36-1.2l-.23-.19c-6.67-4.12-11.75-7.46-14.87-10.37-2.8-2.62-1.76-6.61-1.7-6.84a12.5,12.5,0,0,0-.05-5.46A11.35,11.35,0,0,0,31.2,69c.36,1.6,1.52,4.79,5.33,8.9L38,79.5l.81-5.9v-.09a16.2,16.2,0,0,0,3.77,1.74v2.93h2V75.78a25.63,25.63,0,0,0,4.46.55v1.84h2V76.34a21.83,21.83,0,0,0,4.37-.61v2.45h2v-3a21.53,21.53,0,0,0,3.84-1.77v.07L62,79.5ZM77.3,52.64c.11.27.21.53.32.79.8,1.92,1.16,2.79-1.12,4.77a19.16,19.16,0,0,1-2.19,1.89,6.62,6.62,0,0,0-2,2.15l-.1.27c0,.14-.07.17-.11.19-.22.13-1,.35-3.89-.52s-4.94.21-6,3.27A38.6,38.6,0,0,0,61,71.12,18.42,18.42,0,0,1,57.36,73v-2.2h-2v2.85a19.83,19.83,0,0,1-4.37.68V70.81H49v3.53a23.05,23.05,0,0,1-4.46-.61V70.81h-2v2.32A12.19,12.19,0,0,1,39,71.18a39.11,39.11,0,0,0-1.18-5.74c-1.1-3.06-3.13-4.16-6-3.27s-3.67.66-3.89.52c0,0-.08,0-.11-.19l-.1-.27a6.62,6.62,0,0,0-2-2.15,19.88,19.88,0,0,1-2.25-1.94c-2.22-1.92-1.86-2.8-1.06-4.72.1-.25.21-.51.32-.79a8.73,8.73,0,0,0,.08-5.53c-5-15.78-.15-23.91-.1-24l.08-.16C29.12,7,48.74,7,49,7H51c.2,0,19.83-.06,26.21,16l.08.16c0,.08,4.89,8.13-.09,24A8.74,8.74,0,0,0,77.3,52.64Z"/></g></svg>